{
	"asset":{
		"generator":"Khronos glTF Blender I/O v4.0.44",
		"version":"2.0"
	},
	"scene":0,
	"scenes":[
		{
			"name":"Scene",
			"nodes":[
				0
			]
		}
	],
	"nodes":[
		{
			"mesh":0,
			"name":"arena"
		}
	],
	"materials":[
		{
			"doubleSided":true,
			"name":"arena",
			"pbrMetallicRoughness":{
				"baseColorFactor":[
					0.800000011920929,
					0.800000011920929,
					0.800000011920929,
					1
				],
				"metallicFactor":0,
				"roughnessFactor":0.5
			}
		}
	],
	"meshes":[
		{
			"name":"arena_mesh",
			"primitives":[
				{
					"attributes":{
						"POSITION":0,
						"NORMAL":1,
						"TEXCOORD_0":2,
						"TANGENT":3
					},
					"indices":4,
					"material":0
				}
			]
		}
	],
	"accessors":[
		{
			"bufferView":0,
			"componentType":5126,
			"count":2196,
			"max":[
				23.50572967529297,
				9.435667991638184,
				19.56867790222168
			],
			"min":[
				-14.897184371948242,
				-18.38567352294922,
				-15.072884559631348
			],
			"type":"VEC3"
		},
		{
			"bufferView":1,
			"componentType":5126,
			"count":2196,
			"type":"VEC3"
		},
		{
			"bufferView":2,
			"componentType":5126,
			"count":2196,
			"type":"VEC2"
		},
		{
			"bufferView":3,
			"componentType":5126,
			"count":2196,
			"type":"VEC4"
		},
		{
			"bufferView":4,
			"componentType":5123,
			"count":8541,
			"type":"SCALAR"
		}
	],
	"bufferViews":[
		{
			"buffer":0,
			"byteLength":26352,
			"byteOffset":0,
			"target":34962
		},
		{
			"buffer":0,
			"byteLength":26352,
			"byteOffset":26352,
			"target":34962
		},
		{
			"buffer":0,
			"byteLength":17568,
			"byteOffset":52704,
			"target":34962
		},
		{
			"buffer":0,
			"byteLength":35136,
			"byteOffset":70272,
			"target":34962
		},
		{
			"buffer":0,
			"byteLength":17082,
			"byteOffset":105408,
			"target":34963
		}
	],
	"buffers":[
		{
			"byteLength":122492,
			"uri":"arena.bin"
		}
	]
}
