{
	"asset":{
		"generator":"Khronos glTF Blender I/O v4.0.44",
		"version":"2.0"
	},
	"scene":0,
	"scenes":[
		{
			"name":"Scene",
			"nodes":[
				0
			]
		}
	],
	"nodes":[
		{
			"mesh":0,
			"name":"backdrop"
		}
	],
	"materials":[
		{
			"doubleSided":true,
			"name":"backdrop",
			"pbrMetallicRoughness":{
				"baseColorFactor":[
					0.800000011920929,
					0.800000011920929,
					0.800000011920929,
					1
				],
				"metallicFactor":0,
				"roughnessFactor":0.5
			}
		}
	],
	"meshes":[
		{
			"name":"backdrop_mesh",
			"primitives":[
				{
					"attributes":{
						"POSITION":0,
						"NORMAL":1,
						"TEXCOORD_0":2,
						"TANGENT":3
					},
					"indices":4,
					"material":0
				}
			]
		}
	],
	"accessors":[
		{
			"bufferView":0,
			"componentType":5126,
			"count":550,
			"max":[
				4.036383152008057,
				6.390939235687256,
				2.7715096473693848
			],
			"min":[
				-4.036383152008057,
				0,
				-4.036383152008057
			],
			"type":"VEC3"
		},
		{
			"bufferView":1,
			"componentType":5126,
			"count":550,
			"type":"VEC3"
		},
		{
			"bufferView":2,
			"componentType":5126,
			"count":550,
			"type":"VEC2"
		},
		{
			"bufferView":3,
			"componentType":5126,
			"count":550,
			"type":"VEC4"
		},
		{
			"bufferView":4,
			"componentType":5123,
			"count":2808,
			"type":"SCALAR"
		}
	],
	"bufferViews":[
		{
			"buffer":0,
			"byteLength":6600,
			"byteOffset":0,
			"target":34962
		},
		{
			"buffer":0,
			"byteLength":6600,
			"byteOffset":6600,
			"target":34962
		},
		{
			"buffer":0,
			"byteLength":4400,
			"byteOffset":13200,
			"target":34962
		},
		{
			"buffer":0,
			"byteLength":8800,
			"byteOffset":17600,
			"target":34962
		},
		{
			"buffer":0,
			"byteLength":5616,
			"byteOffset":26400,
			"target":34963
		}
	],
	"buffers":[
		{
			"byteLength":32016,
			"uri":"backdrop.bin"
		}
	]
}
