{
	"asset":{
		"generator":"Khronos glTF Blender I/O v4.0.44",
		"version":"2.0"
	},
	"scene":0,
	"scenes":[
		{
			"name":"Scene",
			"nodes":[
				0
			]
		}
	],
	"nodes":[
		{
			"mesh":0,
			"name":"Cylinder",
			"scale":[
				0.7392747402191162,
				0.7392747402191162,
				0.7392747402191162
			]
		}
	],
	"materials":[
		{
			"doubleSided":true,
			"name":"Material",
			"pbrMetallicRoughness":{
				"baseColorFactor":[
					0.800000011920929,
					0.800000011920929,
					0.800000011920929,
					1
				],
				"metallicFactor":0,
				"roughnessFactor":0.5
			}
		},
		{
			"doubleSided":true,
			"name":"Material.003",
			"pbrMetallicRoughness":{
				"baseColorFactor":[
					0.800000011920929,
					0.800000011920929,
					0.800000011920929,
					1
				],
				"metallicFactor":0,
				"roughnessFactor":0.5
			}
		},
		{
			"doubleSided":true,
			"name":"Material.001",
			"pbrMetallicRoughness":{
				"baseColorFactor":[
					0.8003553152084351,
					0.5838589072227478,
					0.38648465275764465,
					1
				],
				"metallicFactor":0,
				"roughnessFactor":0.5
			}
		},
		{
			"doubleSided":true,
			"name":"Material.002",
			"pbrMetallicRoughness":{
				"baseColorFactor":[
					0.8005127906799316,
					0.49469614028930664,
					0.2957307696342468,
					1
				],
				"metallicFactor":0,
				"roughnessFactor":0.5
			}
		}
	],
	"meshes":[
		{
			"name":"Cylinder",
			"primitives":[
				{
					"attributes":{
						"POSITION":0,
						"NORMAL":1,
						"TEXCOORD_0":2
					},
					"indices":3,
					"material":0
				},
				{
					"attributes":{
						"POSITION":4,
						"NORMAL":5,
						"TEXCOORD_0":6
					},
					"indices":7,
					"material":1
				},
				{
					"attributes":{
						"POSITION":8,
						"NORMAL":9,
						"TEXCOORD_0":10
					},
					"indices":11,
					"material":2
				},
				{
					"attributes":{
						"POSITION":12,
						"NORMAL":13,
						"TEXCOORD_0":14
					},
					"indices":15,
					"material":3
				}
			]
		}
	],
	"accessors":[
		{
			"bufferView":0,
			"componentType":5126,
			"count":80,
			"max":[
				0.12963880598545074,
				2.0391340255737305,
				0.1106342077255249
			],
			"min":[
				-0.12963880598545074,
				1.491633415222168,
				-0.2129448652267456
			],
			"type":"VEC3"
		},
		{
			"bufferView":1,
			"componentType":5126,
			"count":80,
			"type":"VEC3"
		},
		{
			"bufferView":2,
			"componentType":5126,
			"count":80,
			"type":"VEC2"
		},
		{
			"bufferView":3,
			"componentType":5123,
			"count":138,
			"type":"SCALAR"
		},
		{
			"bufferView":4,
			"componentType":5126,
			"count":672,
			"max":[
				0.17285174131393433,
				1.1237186193466187,
				0.17285169661045074
			],
			"min":[
				-0.17285174131393433,
				0.00910961627960205,
				-0.17285169661045074
			],
			"type":"VEC3"
		},
		{
			"bufferView":5,
			"componentType":5126,
			"count":672,
			"type":"VEC3"
		},
		{
			"bufferView":6,
			"componentType":5126,
			"count":672,
			"type":"VEC2"
		},
		{
			"bufferView":7,
			"componentType":5123,
			"count":1248,
			"type":"SCALAR"
		},
		{
			"bufferView":8,
			"componentType":5126,
			"count":480,
			"max":[
				0.17285174131393433,
				1.5679564476013184,
				0.17285171151161194
			],
			"min":[
				-0.17285174131393433,
				1.2222530841827393,
				-0.17285171151161194
			],
			"type":"VEC3"
		},
		{
			"bufferView":9,
			"componentType":5126,
			"count":480,
			"type":"VEC3"
		},
		{
			"bufferView":10,
			"componentType":5126,
			"count":480,
			"type":"VEC2"
		},
		{
			"bufferView":11,
			"componentType":5123,
			"count":672,
			"type":"SCALAR"
		},
		{
			"bufferView":12,
			"componentType":5126,
			"count":960,
			"max":[
				0.35232189297676086,
				0.8986011743545532,
				0.3650225102901459
			],
			"min":[
				-0.35020512342453003,
				0.7316175699234009,
				0.19803877174854279
			],
			"type":"VEC3"
		},
		{
			"bufferView":13,
			"componentType":5126,
			"count":960,
			"type":"VEC3"
		},
		{
			"bufferView":14,
			"componentType":5126,
			"count":960,
			"type":"VEC2"
		},
		{
			"bufferView":15,
			"componentType":5123,
			"count":1344,
			"type":"SCALAR"
		}
	],
	"bufferViews":[
		{
			"buffer":0,
			"byteLength":960,
			"byteOffset":0,
			"target":34962
		},
		{
			"buffer":0,
			"byteLength":960,
			"byteOffset":960,
			"target":34962
		},
		{
			"buffer":0,
			"byteLength":640,
			"byteOffset":1920,
			"target":34962
		},
		{
			"buffer":0,
			"byteLength":276,
			"byteOffset":2560,
			"target":34963
		},
		{
			"buffer":0,
			"byteLength":8064,
			"byteOffset":2836,
			"target":34962
		},
		{
			"buffer":0,
			"byteLength":8064,
			"byteOffset":10900,
			"target":34962
		},
		{
			"buffer":0,
			"byteLength":5376,
			"byteOffset":18964,
			"target":34962
		},
		{
			"buffer":0,
			"byteLength":2496,
			"byteOffset":24340,
			"target":34963
		},
		{
			"buffer":0,
			"byteLength":5760,
			"byteOffset":26836,
			"target":34962
		},
		{
			"buffer":0,
			"byteLength":5760,
			"byteOffset":32596,
			"target":34962
		},
		{
			"buffer":0,
			"byteLength":3840,
			"byteOffset":38356,
			"target":34962
		},
		{
			"buffer":0,
			"byteLength":1344,
			"byteOffset":42196,
			"target":34963
		},
		{
			"buffer":0,
			"byteLength":11520,
			"byteOffset":43540,
			"target":34962
		},
		{
			"buffer":0,
			"byteLength":11520,
			"byteOffset":55060,
			"target":34962
		},
		{
			"buffer":0,
			"byteLength":7680,
			"byteOffset":66580,
			"target":34962
		},
		{
			"buffer":0,
			"byteLength":2688,
			"byteOffset":74260,
			"target":34963
		}
	],
	"buffers":[
		{
			"byteLength":76948,
			"uri":"chef.bin"
		}
	]
}
