{
	"asset":{
		"generator":"Khronos glTF Blender I/O v4.0.44",
		"version":"2.0"
	},
	"scene":0,
	"scenes":[
		{
			"name":"Scene",
			"nodes":[
				0
			]
		}
	],
	"nodes":[
		{
			"mesh":0,
			"name":"Plane"
		}
	],
	"materials":[
		{
			"doubleSided":true,
			"name":"Material.001",
			"pbrMetallicRoughness":{
				"baseColorFactor":[
					0.167167067527771,
					0.167167067527771,
					0.167167067527771,
					1
				],
				"metallicFactor":0.050632912665605545,
				"roughnessFactor":0.2848101258277893
			}
		}
	],
	"meshes":[
		{
			"name":"Plane",
			"primitives":[
				{
					"attributes":{
						"POSITION":0,
						"NORMAL":1,
						"TEXCOORD_0":2,
						"TANGENT":3
					},
					"indices":4,
					"material":0
				}
			]
		}
	],
	"accessors":[
		{
			"bufferView":0,
			"componentType":5126,
			"count":574,
			"max":[
				0.4239940941333771,
				3.8936831951141357,
				0.049701396375894547
			],
			"min":[
				-0.4239940941333771,
				0.010892391204833984,
				-0.09463130682706833
			],
			"type":"VEC3"
		},
		{
			"bufferView":1,
			"componentType":5126,
			"count":574,
			"type":"VEC3"
		},
		{
			"bufferView":2,
			"componentType":5126,
			"count":574,
			"type":"VEC2"
		},
		{
			"bufferView":3,
			"componentType":5126,
			"count":574,
			"type":"VEC4"
		},
		{
			"bufferView":4,
			"componentType":5123,
			"count":1332,
			"type":"SCALAR"
		}
	],
	"bufferViews":[
		{
			"buffer":0,
			"byteLength":6888,
			"byteOffset":0,
			"target":34962
		},
		{
			"buffer":0,
			"byteLength":6888,
			"byteOffset":6888,
			"target":34962
		},
		{
			"buffer":0,
			"byteLength":4592,
			"byteOffset":13776,
			"target":34962
		},
		{
			"buffer":0,
			"byteLength":9184,
			"byteOffset":18368,
			"target":34962
		},
		{
			"buffer":0,
			"byteLength":2664,
			"byteOffset":27552,
			"target":34963
		}
	],
	"buffers":[
		{
			"byteLength":30216,
			"uri":"comically-large-spoon.bin"
		}
	]
}
