{
	"asset":{
		"generator":"Khronos glTF Blender I/O v4.0.44",
		"version":"2.0"
	},
	"scene":0,
	"scenes":[
		{
			"name":"Scene",
			"nodes":[
				0
			]
		}
	],
	"nodes":[
		{
			"mesh":0,
			"name":"Cylinder"
		}
	],
	"materials":[
		{
			"doubleSided":true,
			"name":"Material.001",
			"pbrMetallicRoughness":{
				"baseColorFactor":[
					0.008252262137830257,
					0.029273919761180878,
					0.012957669794559479,
					1
				],
				"metallicFactor":0,
				"roughnessFactor":0.5
			}
		},
		{
			"doubleSided":true,
			"name":"Material.002",
			"pbrMetallicRoughness":{
				"baseColorFactor":[
					0.8003387451171875,
					0.7207583785057068,
					0.15405575931072235,
					1
				],
				"metallicFactor":0,
				"roughnessFactor":0.5
			}
		},
		{
			"doubleSided":true,
			"name":"Material.003",
			"pbrMetallicRoughness":{
				"baseColorFactor":[
					0.800000011920929,
					0.800000011920929,
					0.800000011920929,
					1
				],
				"metallicFactor":0,
				"roughnessFactor":0.5
			}
		}
	],
	"meshes":[
		{
			"name":"Cylinder",
			"primitives":[
				{
					"attributes":{
						"POSITION":0,
						"NORMAL":1,
						"TEXCOORD_0":2
					},
					"indices":3,
					"material":0
				},
				{
					"attributes":{
						"POSITION":4,
						"NORMAL":5,
						"TEXCOORD_0":6
					},
					"indices":7,
					"material":1
				},
				{
					"attributes":{
						"POSITION":8,
						"NORMAL":9,
						"TEXCOORD_0":10
					},
					"indices":11,
					"material":2
				}
			]
		}
	],
	"accessors":[
		{
			"bufferView":0,
			"componentType":5126,
			"count":3446,
			"max":[
				0.028858060017228127,
				0.08885932713747025,
				0.02786681242287159
			],
			"min":[
				-0.028858061879873276,
				0.00028727197786793113,
				-0.043057169765233994
			],
			"type":"VEC3"
		},
		{
			"bufferView":1,
			"componentType":5126,
			"count":3446,
			"type":"VEC3"
		},
		{
			"bufferView":2,
			"componentType":5126,
			"count":3446,
			"type":"VEC2"
		},
		{
			"bufferView":3,
			"componentType":5123,
			"count":6114,
			"type":"SCALAR"
		},
		{
			"bufferView":4,
			"componentType":5126,
			"count":64,
			"max":[
				0.009618355892598629,
				0.08141310513019562,
				0.008627103641629219
			],
			"min":[
				-0.009618353098630905,
				0.07930814474821091,
				-0.010609603486955166
			],
			"type":"VEC3"
		},
		{
			"bufferView":5,
			"componentType":5126,
			"count":64,
			"type":"VEC3"
		},
		{
			"bufferView":6,
			"componentType":5126,
			"count":64,
			"type":"VEC2"
		},
		{
			"bufferView":7,
			"componentType":5123,
			"count":96,
			"type":"SCALAR"
		},
		{
			"bufferView":8,
			"componentType":5126,
			"count":192,
			"max":[
				0.01561077032238245,
				0.08949194103479385,
				0.006770930718630552
			],
			"min":[
				0.00373575696721673,
				0.07228165864944458,
				-0.012760011479258537
			],
			"type":"VEC3"
		},
		{
			"bufferView":9,
			"componentType":5126,
			"count":192,
			"type":"VEC3"
		},
		{
			"bufferView":10,
			"componentType":5126,
			"count":192,
			"type":"VEC2"
		},
		{
			"bufferView":11,
			"componentType":5123,
			"count":384,
			"type":"SCALAR"
		}
	],
	"bufferViews":[
		{
			"buffer":0,
			"byteLength":41352,
			"byteOffset":0,
			"target":34962
		},
		{
			"buffer":0,
			"byteLength":41352,
			"byteOffset":41352,
			"target":34962
		},
		{
			"buffer":0,
			"byteLength":27568,
			"byteOffset":82704,
			"target":34962
		},
		{
			"buffer":0,
			"byteLength":12228,
			"byteOffset":110272,
			"target":34963
		},
		{
			"buffer":0,
			"byteLength":768,
			"byteOffset":122500,
			"target":34962
		},
		{
			"buffer":0,
			"byteLength":768,
			"byteOffset":123268,
			"target":34962
		},
		{
			"buffer":0,
			"byteLength":512,
			"byteOffset":124036,
			"target":34962
		},
		{
			"buffer":0,
			"byteLength":192,
			"byteOffset":124548,
			"target":34963
		},
		{
			"buffer":0,
			"byteLength":2304,
			"byteOffset":124740,
			"target":34962
		},
		{
			"buffer":0,
			"byteLength":2304,
			"byteOffset":127044,
			"target":34962
		},
		{
			"buffer":0,
			"byteLength":1536,
			"byteOffset":129348,
			"target":34962
		},
		{
			"buffer":0,
			"byteLength":768,
			"byteOffset":130884,
			"target":34963
		}
	],
	"buffers":[
		{
			"byteLength":131652,
			"uri":"grenade.bin"
		}
	]
}
