{
	"asset":{
		"generator":"Khronos glTF Blender I/O v4.0.44",
		"version":"2.0"
	},
	"scene":0,
	"scenes":[
		{
			"name":"Scene",
			"nodes":[
				0
			]
		}
	],
	"nodes":[
		{
			"mesh":0,
			"name":"Cube"
		}
	],
	"materials":[
		{
			"doubleSided":true,
			"name":"Material.001",
			"pbrMetallicRoughness":{
				"baseColorFactor":[
					0.07121403515338898,
					0.07121403515338898,
					0.07121403515338898,
					1
				],
				"metallicFactor":0.6518987417221069,
				"roughnessFactor":0.297468364238739
			}
		}
	],
	"meshes":[
		{
			"name":"Cube.001",
			"primitives":[
				{
					"attributes":{
						"POSITION":0,
						"NORMAL":1,
						"TEXCOORD_0":2,
						"TANGENT":3
					},
					"indices":4,
					"material":0
				}
			]
		}
	],
	"accessors":[
		{
			"bufferView":0,
			"componentType":5126,
			"count":327,
			"max":[
				0.03171863034367561,
				0.18746234476566315,
				0.17553968727588654
			],
			"min":[
				-0.03171863034367561,
				0.00036557111889123917,
				-0.20297063887119293
			],
			"type":"VEC3"
		},
		{
			"bufferView":1,
			"componentType":5126,
			"count":327,
			"type":"VEC3"
		},
		{
			"bufferView":2,
			"componentType":5126,
			"count":327,
			"type":"VEC2"
		},
		{
			"bufferView":3,
			"componentType":5126,
			"count":327,
			"type":"VEC4"
		},
		{
			"bufferView":4,
			"componentType":5123,
			"count":624,
			"type":"SCALAR"
		}
	],
	"bufferViews":[
		{
			"buffer":0,
			"byteLength":3924,
			"byteOffset":0,
			"target":34962
		},
		{
			"buffer":0,
			"byteLength":3924,
			"byteOffset":3924,
			"target":34962
		},
		{
			"buffer":0,
			"byteLength":2616,
			"byteOffset":7848,
			"target":34962
		},
		{
			"buffer":0,
			"byteLength":5232,
			"byteOffset":10464,
			"target":34962
		},
		{
			"buffer":0,
			"byteLength":1248,
			"byteOffset":15696,
			"target":34963
		}
	],
	"buffers":[
		{
			"byteLength":16944,
			"uri":"gun.bin"
		}
	]
}
