{
	"asset":{
		"generator":"Khronos glTF Blender I/O v4.0.44",
		"version":"2.0"
	},
	"scene":0,
	"scenes":[
		{
			"name":"Scene",
			"nodes":[
				0
			]
		}
	],
	"nodes":[
		{
			"mesh":0,
			"name":"Cube"
		}
	],
	"materials":[
		{
			"doubleSided":true,
			"name":"Material",
			"pbrMetallicRoughness":{
				"baseColorFactor":[
					0.06587118655443192,
					0.061924226582050323,
					0.06146723031997681,
					1
				],
				"metallicFactor":0,
				"roughnessFactor":0.5
			}
		},
		{
			"doubleSided":true,
			"name":"Material.001",
			"pbrMetallicRoughness":{
				"baseColorFactor":[
					0.3490866422653198,
					0.3490866422653198,
					0.3490866422653198,
					1
				],
				"metallicFactor":0,
				"roughnessFactor":0.5
			}
		}
	],
	"meshes":[
		{
			"name":"Cube",
			"primitives":[
				{
					"attributes":{
						"POSITION":0,
						"NORMAL":1,
						"TEXCOORD_0":2,
						"TANGENT":3
					},
					"indices":4,
					"material":0
				},
				{
					"attributes":{
						"POSITION":5,
						"NORMAL":6,
						"TEXCOORD_0":7,
						"TANGENT":8
					},
					"indices":9,
					"material":1
				}
			]
		}
	],
	"accessors":[
		{
			"bufferView":0,
			"componentType":5126,
			"count":96,
			"max":[
				0.2596455514431,
				0.5638387799263,
				0.06435848027467728
			],
			"min":[
				-0.2596455514431,
				-0.5638382434844971,
				-1.5058726072311401
			],
			"type":"VEC3"
		},
		{
			"bufferView":1,
			"componentType":5126,
			"count":96,
			"type":"VEC3"
		},
		{
			"bufferView":2,
			"componentType":5126,
			"count":96,
			"type":"VEC2"
		},
		{
			"bufferView":3,
			"componentType":5126,
			"count":96,
			"type":"VEC4"
		},
		{
			"bufferView":4,
			"componentType":5123,
			"count":222,
			"type":"SCALAR"
		},
		{
			"bufferView":5,
			"componentType":5126,
			"count":44,
			"max":[
				0.05320972949266434,
				0.22002947330474854,
				2.0479209423065186
			],
			"min":[
				-0.05320972949266434,
				-0.22002974152565002,
				0.06435798108577728
			],
			"type":"VEC3"
		},
		{
			"bufferView":6,
			"componentType":5126,
			"count":44,
			"type":"VEC3"
		},
		{
			"bufferView":7,
			"componentType":5126,
			"count":44,
			"type":"VEC2"
		},
		{
			"bufferView":8,
			"componentType":5126,
			"count":44,
			"type":"VEC4"
		},
		{
			"bufferView":9,
			"componentType":5123,
			"count":60,
			"type":"SCALAR"
		}
	],
	"bufferViews":[
		{
			"buffer":0,
			"byteLength":1152,
			"byteOffset":0,
			"target":34962
		},
		{
			"buffer":0,
			"byteLength":1152,
			"byteOffset":1152,
			"target":34962
		},
		{
			"buffer":0,
			"byteLength":768,
			"byteOffset":2304,
			"target":34962
		},
		{
			"buffer":0,
			"byteLength":1536,
			"byteOffset":3072,
			"target":34962
		},
		{
			"buffer":0,
			"byteLength":444,
			"byteOffset":4608,
			"target":34963
		},
		{
			"buffer":0,
			"byteLength":528,
			"byteOffset":5052,
			"target":34962
		},
		{
			"buffer":0,
			"byteLength":528,
			"byteOffset":5580,
			"target":34962
		},
		{
			"buffer":0,
			"byteLength":352,
			"byteOffset":6108,
			"target":34962
		},
		{
			"buffer":0,
			"byteLength":704,
			"byteOffset":6460,
			"target":34962
		},
		{
			"buffer":0,
			"byteLength":120,
			"byteOffset":7164,
			"target":34963
		}
	],
	"buffers":[
		{
			"byteLength":7284,
			"uri":"knife.bin"
		}
	]
}
