{
	"asset":{
		"generator":"Khronos glTF Blender I/O v4.0.44",
		"version":"2.0"
	},
	"scene":0,
	"scenes":[
		{
			"name":"Scene",
			"nodes":[
				0
			]
		}
	],
	"nodes":[
		{
			"mesh":0,
			"name":"Cylinder"
		}
	],
	"materials":[
		{
			"doubleSided":true,
			"name":"Material.001",
			"pbrMetallicRoughness":{
				"baseColorFactor":[
					0.800536572933197,
					0.5856903195381165,
					0.10879343748092651,
					1
				],
				"metallicFactor":0,
				"roughnessFactor":0.5
			}
		},
		{
			"doubleSided":true,
			"name":"Material.002",
			"pbrMetallicRoughness":{
				"baseColorFactor":[
					0,
					0,
					0,
					1
				],
				"metallicFactor":0,
				"roughnessFactor":0.5
			}
		}
	],
	"meshes":[
		{
			"name":"Cylinder",
			"primitives":[
				{
					"attributes":{
						"POSITION":0,
						"NORMAL":1,
						"TEXCOORD_0":2
					},
					"indices":3,
					"material":0
				},
				{
					"attributes":{
						"POSITION":4,
						"NORMAL":5,
						"TEXCOORD_0":6
					},
					"indices":7,
					"material":1
				}
			]
		}
	],
	"accessors":[
		{
			"bufferView":0,
			"componentType":5126,
			"count":512,
			"max":[
				0.9547629952430725,
				1.9469294548034668,
				1.3673851490020752
			],
			"min":[
				-0.9547629952430725,
				0.03740346431732178,
				-2.0421814918518066
			],
			"type":"VEC3"
		},
		{
			"bufferView":1,
			"componentType":5126,
			"count":512,
			"type":"VEC3"
		},
		{
			"bufferView":2,
			"componentType":5126,
			"count":512,
			"type":"VEC2"
		},
		{
			"bufferView":3,
			"componentType":5123,
			"count":852,
			"type":"SCALAR"
		},
		{
			"bufferView":4,
			"componentType":5126,
			"count":64,
			"max":[
				0.9547629952430725,
				1.9469294548034668,
				0.2693023979663849
			],
			"min":[
				-0.9547629952430725,
				0.03740346431732178,
				-0.1325034648180008
			],
			"type":"VEC3"
		},
		{
			"bufferView":5,
			"componentType":5126,
			"count":64,
			"type":"VEC3"
		},
		{
			"bufferView":6,
			"componentType":5126,
			"count":64,
			"type":"VEC2"
		},
		{
			"bufferView":7,
			"componentType":5123,
			"count":96,
			"type":"SCALAR"
		}
	],
	"bufferViews":[
		{
			"buffer":0,
			"byteLength":6144,
			"byteOffset":0,
			"target":34962
		},
		{
			"buffer":0,
			"byteLength":6144,
			"byteOffset":6144,
			"target":34962
		},
		{
			"buffer":0,
			"byteLength":4096,
			"byteOffset":12288,
			"target":34962
		},
		{
			"buffer":0,
			"byteLength":1704,
			"byteOffset":16384,
			"target":34963
		},
		{
			"buffer":0,
			"byteLength":768,
			"byteOffset":18088,
			"target":34962
		},
		{
			"buffer":0,
			"byteLength":768,
			"byteOffset":18856,
			"target":34962
		},
		{
			"buffer":0,
			"byteLength":512,
			"byteOffset":19624,
			"target":34962
		},
		{
			"buffer":0,
			"byteLength":192,
			"byteOffset":20136,
			"target":34963
		}
	],
	"buffers":[
		{
			"byteLength":20328,
			"uri":"nuke.bin"
		}
	]
}
