{
	"asset":{
		"generator":"Khronos glTF Blender I/O v4.0.44",
		"version":"2.0"
	},
	"scene":0,
	"scenes":[
		{
			"name":"Scene",
			"nodes":[
				5
			]
		}
	],
	"nodes":[
		{
			"name":"Bone.001",
			"rotation":[
				0.0016666599549353123,
				1.847414365582778e-13,
				3.0463609412834103e-10,
				0.9999986290931702
			],
			"scale":[
				1,
				0.9999997615814209,
				0.9999999403953552
			],
			"translation":[
				0,
				5.872955322265625,
				0
			]
		},
		{
			"name":"Bone.002",
			"rotation":[
				-0.8848379850387573,
				-0.2898519039154053,
				-0.11354856193065643,
				0.34663283824920654
			],
			"scale":[
				1,
				0.9999998807907104,
				1
			],
			"translation":[
				0,
				5.872955322265625,
				0
			]
		},
		{
			"name":"Bone.003",
			"rotation":[
				0.8843823671340942,
				0.2810358703136444,
				-0.11286576837301254,
				0.35517314076423645
			],
			"scale":[
				1.0000001192092896,
				1.0000001192092896,
				1.000000238418579
			],
			"translation":[
				0,
				5.872955322265625,
				0
			]
		},
		{
			"children":[
				0,
				1,
				2
			],
			"name":"Bone",
			"rotation":[
				-4.214683357872673e-08,
				-0.7071065306663513,
				0,
				0.7071070075035095
			],
			"scale":[
				0.9999999403953552,
				0.9999998211860657,
				0.9999999403953552
			],
			"translation":[
				0,
				0.3825590908527374,
				0
			]
		},
		{
			"mesh":0,
			"name":"Sphere.003",
			"skin":0
		},
		{
			"children":[
				4,
				3
			],
			"name":"Armature",
			"scale":[
				0.17279267311096191,
				0.17279267311096191,
				0.17279267311096191
			]
		}
	],
	"materials":[
		{
			"doubleSided":true,
			"name":"Material.002",
			"pbrMetallicRoughness":{
				"baseColorFactor":[
					0.8005127906799316,
					0.49469614028930664,
					0.2957307696342468,
					1
				],
				"metallicFactor":0,
				"roughnessFactor":0.5
			}
		},
		{
			"doubleSided":true,
			"name":"Material.003",
			"pbrMetallicRoughness":{
				"baseColorFactor":[
					0.800000011920929,
					0.800000011920929,
					0.800000011920929,
					1
				],
				"metallicFactor":0,
				"roughnessFactor":0.5
			}
		},
		{
			"doubleSided":true,
			"name":"Material.001",
			"pbrMetallicRoughness":{
				"baseColorFactor":[
					0.8003553152084351,
					0.5838589072227478,
					0.38648465275764465,
					1
				],
				"metallicFactor":0,
				"roughnessFactor":0.5
			}
		}
	],
	"meshes":[
		{
			"name":"Sphere.004",
			"primitives":[
				{
					"attributes":{
						"POSITION":0,
						"NORMAL":1,
						"TEXCOORD_0":2,
						"TANGENT":3,
						"JOINTS_0":4,
						"WEIGHTS_0":5
					},
					"indices":6,
					"material":0
				},
				{
					"attributes":{
						"POSITION":7,
						"NORMAL":8,
						"TEXCOORD_0":9,
						"TANGENT":10,
						"JOINTS_0":11,
						"WEIGHTS_0":12
					},
					"indices":13,
					"material":1
				},
				{
					"attributes":{
						"POSITION":14,
						"NORMAL":15,
						"TEXCOORD_0":16,
						"TANGENT":17,
						"JOINTS_0":18,
						"WEIGHTS_0":19
					},
					"indices":20,
					"material":2
				}
			]
		}
	],
	"skins":[
		{
			"inverseBindMatrices":21,
			"joints":[
				3,
				0,
				1,
				2
			],
			"name":"Armature"
		}
	],
	"accessors":[
		{
			"bufferView":0,
			"componentType":5126,
			"count":960,
			"max":[
				0.35220158100128174,
				0.8868719935417175,
				0.3648979663848877
			],
			"min":[
				-0.35008540749549866,
				0.7199453115463257,
				0.19797106087207794
			],
			"type":"VEC3"
		},
		{
			"bufferView":1,
			"componentType":5126,
			"count":960,
			"type":"VEC3"
		},
		{
			"bufferView":2,
			"componentType":5126,
			"count":960,
			"type":"VEC2"
		},
		{
			"bufferView":3,
			"componentType":5126,
			"count":960,
			"type":"VEC4"
		},
		{
			"bufferView":4,
			"componentType":5121,
			"count":960,
			"type":"VEC4"
		},
		{
			"bufferView":5,
			"componentType":5126,
			"count":960,
			"type":"VEC4"
		},
		{
			"bufferView":6,
			"componentType":5123,
			"count":1344,
			"type":"SCALAR"
		},
		{
			"bufferView":7,
			"componentType":5126,
			"count":672,
			"max":[
				0.17279267311096191,
				1.111912488937378,
				0.17279265820980072
			],
			"min":[
				-0.1727927178144455,
				-0.0023158059921115637,
				-0.1727927178144455
			],
			"type":"VEC3"
		},
		{
			"bufferView":8,
			"componentType":5126,
			"count":672,
			"type":"VEC3"
		},
		{
			"bufferView":9,
			"componentType":5126,
			"count":672,
			"type":"VEC2"
		},
		{
			"bufferView":10,
			"componentType":5126,
			"count":672,
			"type":"VEC4"
		},
		{
			"bufferView":11,
			"componentType":5121,
			"count":672,
			"type":"VEC4"
		},
		{
			"bufferView":12,
			"componentType":5126,
			"count":672,
			"type":"VEC4"
		},
		{
			"bufferView":13,
			"componentType":5123,
			"count":1248,
			"type":"SCALAR"
		},
		{
			"bufferView":14,
			"componentType":5126,
			"count":480,
			"max":[
				0.17279267311096191,
				1.5559985637664795,
				0.17279265820980072
			],
			"min":[
				-0.1727927178144455,
				1.2104133367538452,
				-0.1727927178144455
			],
			"type":"VEC3"
		},
		{
			"bufferView":15,
			"componentType":5126,
			"count":480,
			"type":"VEC3"
		},
		{
			"bufferView":16,
			"componentType":5126,
			"count":480,
			"type":"VEC2"
		},
		{
			"bufferView":17,
			"componentType":5126,
			"count":480,
			"type":"VEC4"
		},
		{
			"bufferView":18,
			"componentType":5121,
			"count":480,
			"type":"VEC4"
		},
		{
			"bufferView":19,
			"componentType":5126,
			"count":480,
			"type":"VEC4"
		},
		{
			"bufferView":20,
			"componentType":5123,
			"count":672,
			"type":"SCALAR"
		},
		{
			"bufferView":21,
			"componentType":5126,
			"count":4,
			"type":"MAT4"
		}
	],
	"bufferViews":[
		{
			"buffer":0,
			"byteLength":11520,
			"byteOffset":0,
			"target":34962
		},
		{
			"buffer":0,
			"byteLength":11520,
			"byteOffset":11520,
			"target":34962
		},
		{
			"buffer":0,
			"byteLength":7680,
			"byteOffset":23040,
			"target":34962
		},
		{
			"buffer":0,
			"byteLength":15360,
			"byteOffset":30720,
			"target":34962
		},
		{
			"buffer":0,
			"byteLength":3840,
			"byteOffset":46080,
			"target":34962
		},
		{
			"buffer":0,
			"byteLength":15360,
			"byteOffset":49920,
			"target":34962
		},
		{
			"buffer":0,
			"byteLength":2688,
			"byteOffset":65280,
			"target":34963
		},
		{
			"buffer":0,
			"byteLength":8064,
			"byteOffset":67968,
			"target":34962
		},
		{
			"buffer":0,
			"byteLength":8064,
			"byteOffset":76032,
			"target":34962
		},
		{
			"buffer":0,
			"byteLength":5376,
			"byteOffset":84096,
			"target":34962
		},
		{
			"buffer":0,
			"byteLength":10752,
			"byteOffset":89472,
			"target":34962
		},
		{
			"buffer":0,
			"byteLength":2688,
			"byteOffset":100224,
			"target":34962
		},
		{
			"buffer":0,
			"byteLength":10752,
			"byteOffset":102912,
			"target":34962
		},
		{
			"buffer":0,
			"byteLength":2496,
			"byteOffset":113664,
			"target":34963
		},
		{
			"buffer":0,
			"byteLength":5760,
			"byteOffset":116160,
			"target":34962
		},
		{
			"buffer":0,
			"byteLength":5760,
			"byteOffset":121920,
			"target":34962
		},
		{
			"buffer":0,
			"byteLength":3840,
			"byteOffset":127680,
			"target":34962
		},
		{
			"buffer":0,
			"byteLength":7680,
			"byteOffset":131520,
			"target":34962
		},
		{
			"buffer":0,
			"byteLength":1920,
			"byteOffset":139200,
			"target":34962
		},
		{
			"buffer":0,
			"byteLength":7680,
			"byteOffset":141120,
			"target":34962
		},
		{
			"buffer":0,
			"byteLength":1344,
			"byteOffset":148800,
			"target":34963
		},
		{
			"buffer":0,
			"byteLength":256,
			"byteOffset":150144
		}
	],
	"buffers":[
		{
			"byteLength":150400,
			"uri":"salaryman.bin"
		}
	]
}
