{
	"asset":{
		"generator":"Khronos glTF Blender I/O v4.0.44",
		"version":"2.0"
	},
	"scene":0,
	"scenes":[
		{
			"name":"Scene",
			"nodes":[
				5
			]
		}
	],
	"nodes":[
		{
			"name":"Bone.001",
			"rotation":[
				0.0016666599549353123,
				1.7763593804990922e-14,
				3.9736253176769765e-10,
				0.9999986290931702
			],
			"translation":[
				0,
				5.8729567527771,
				0
			]
		},
		{
			"name":"Bone.002",
			"rotation":[
				-0.8848379850387573,
				-0.2898517847061157,
				-0.11354886740446091,
				0.3466328978538513
			],
			"translation":[
				0,
				5.8729567527771,
				0
			]
		},
		{
			"name":"Bone.003",
			"rotation":[
				0.884382426738739,
				0.2810359597206116,
				-0.11286541074514389,
				0.35517317056655884
			],
			"scale":[
				0.9999997019767761,
				0.9999998211860657,
				0.9999997019767761
			],
			"translation":[
				0,
				5.8729567527771,
				0
			]
		},
		{
			"children":[
				0,
				1,
				2
			],
			"name":"Bone",
			"rotation":[
				-2.980232594040899e-08,
				1.1920926823449918e-07,
				0,
				1
			],
			"scale":[
				1,
				0.9999999403953552,
				0.9999999403953552
			],
			"translation":[
				0,
				0.3914222717285156,
				0
			]
		},
		{
			"mesh":0,
			"name":"Sphere",
			"skin":0
		},
		{
			"children":[
				4,
				3
			],
			"name":"Armature",
			"rotation":[
				0,
				-0.7071068286895752,
				0,
				0.7071068286895752
			],
			"scale":[
				0.16564738750457764,
				0.16564738750457764,
				0.16564738750457764
			]
		}
	],
	"materials":[
		{
			"doubleSided":true,
			"name":"Material.003",
			"pbrMetallicRoughness":{
				"baseColorFactor":[
					0.800000011920929,
					0.800000011920929,
					0.800000011920929,
					1
				],
				"metallicFactor":0,
				"roughnessFactor":0.5
			}
		},
		{
			"doubleSided":true,
			"name":"Suit",
			"pbrMetallicRoughness":{
				"baseColorFactor":[
					0.02082005888223648,
					0.12061452865600586,
					0.017552437260746956,
					1
				],
				"metallicFactor":0,
				"roughnessFactor":0.5
			}
		},
		{
			"doubleSided":true,
			"name":"Material.004",
			"pbrMetallicRoughness":{
				"baseColorFactor":[
					0.2522583603858948,
					0.136219322681427,
					0.03604172542691231,
					1
				],
				"metallicFactor":0,
				"roughnessFactor":0.5
			}
		},
		{
			"doubleSided":true,
			"name":"Material.001",
			"pbrMetallicRoughness":{
				"baseColorFactor":[
					0.8008036613464355,
					0.6674687266349792,
					0.5012524724006653,
					1
				],
				"metallicFactor":0,
				"roughnessFactor":0.5
			}
		},
		{
			"doubleSided":true,
			"name":"Material.002",
			"pbrMetallicRoughness":{
				"baseColorFactor":[
					0.8005127906799316,
					0.49469614028930664,
					0.2957307696342468,
					1
				],
				"metallicFactor":0,
				"roughnessFactor":0.5
			}
		},
		{
			"doubleSided":true,
			"name":"Material",
			"pbrMetallicRoughness":{
				"baseColorFactor":[
					0.022970139980316162,
					0.13871631026268005,
					0.014605378732085228,
					1
				],
				"metallicFactor":0,
				"roughnessFactor":0.5
			}
		}
	],
	"meshes":[
		{
			"name":"Sphere",
			"primitives":[
				{
					"attributes":{
						"POSITION":0,
						"NORMAL":1,
						"TEXCOORD_0":2,
						"TANGENT":3,
						"JOINTS_0":4,
						"WEIGHTS_0":5
					},
					"indices":6,
					"material":0
				},
				{
					"attributes":{
						"POSITION":7,
						"NORMAL":8,
						"TEXCOORD_0":9,
						"TANGENT":10,
						"JOINTS_0":11,
						"WEIGHTS_0":12
					},
					"indices":13,
					"material":1
				},
				{
					"attributes":{
						"POSITION":14,
						"NORMAL":15,
						"TEXCOORD_0":16,
						"TANGENT":17,
						"JOINTS_0":18,
						"WEIGHTS_0":19
					},
					"indices":20,
					"material":2
				},
				{
					"attributes":{
						"POSITION":21,
						"NORMAL":22,
						"TEXCOORD_0":23,
						"TANGENT":24,
						"JOINTS_0":25,
						"WEIGHTS_0":26
					},
					"indices":27,
					"material":3
				},
				{
					"attributes":{
						"POSITION":28,
						"NORMAL":29,
						"TEXCOORD_0":30,
						"TANGENT":31,
						"JOINTS_0":32,
						"WEIGHTS_0":33
					},
					"indices":34,
					"material":4
				},
				{
					"attributes":{
						"POSITION":35,
						"NORMAL":36,
						"TEXCOORD_0":37,
						"TANGENT":38,
						"JOINTS_0":39,
						"WEIGHTS_0":40
					},
					"indices":41,
					"material":5
				}
			]
		}
	],
	"skins":[
		{
			"inverseBindMatrices":42,
			"joints":[
				3,
				0,
				1,
				2
			],
			"name":"Armature"
		}
	],
	"accessors":[
		{
			"bufferView":0,
			"componentType":5126,
			"count":76,
			"max":[
				0.17014387249946594,
				1.068091630935669,
				0.17537890374660492
			],
			"min":[
				-0.17014385759830475,
				0.5435661673545837,
				-0.17061364650726318
			],
			"type":"VEC3"
		},
		{
			"bufferView":1,
			"componentType":5126,
			"count":76,
			"type":"VEC3"
		},
		{
			"bufferView":2,
			"componentType":5126,
			"count":76,
			"type":"VEC2"
		},
		{
			"bufferView":3,
			"componentType":5126,
			"count":76,
			"type":"VEC4"
		},
		{
			"bufferView":4,
			"componentType":5121,
			"count":76,
			"type":"VEC4"
		},
		{
			"bufferView":5,
			"componentType":5126,
			"count":76,
			"type":"VEC4"
		},
		{
			"bufferView":6,
			"componentType":5123,
			"count":114,
			"type":"SCALAR"
		},
		{
			"bufferView":7,
			"componentType":5126,
			"count":548,
			"max":[
				0.16564738750457764,
				1.0674010515213013,
				0.16564738750457764
			],
			"min":[
				-0.16564738750457764,
				-0.0007518756319768727,
				-0.16564737260341644
			],
			"type":"VEC3"
		},
		{
			"bufferView":8,
			"componentType":5126,
			"count":548,
			"type":"VEC3"
		},
		{
			"bufferView":9,
			"componentType":5126,
			"count":548,
			"type":"VEC2"
		},
		{
			"bufferView":10,
			"componentType":5126,
			"count":548,
			"type":"VEC4"
		},
		{
			"bufferView":11,
			"componentType":5121,
			"count":548,
			"type":"VEC4"
		},
		{
			"bufferView":12,
			"componentType":5126,
			"count":548,
			"type":"VEC4"
		},
		{
			"bufferView":13,
			"componentType":5123,
			"count":948,
			"type":"SCALAR"
		},
		{
			"bufferView":14,
			"componentType":5126,
			"count":514,
			"max":[
				0.17205612361431122,
				1.068091630935669,
				0.19417284429073334
			],
			"min":[
				-0.17205607891082764,
				0.5435661673545837,
				-0.17252589762210846
			],
			"type":"VEC3"
		},
		{
			"bufferView":15,
			"componentType":5126,
			"count":514,
			"type":"VEC3"
		},
		{
			"bufferView":16,
			"componentType":5126,
			"count":514,
			"type":"VEC2"
		},
		{
			"bufferView":17,
			"componentType":5126,
			"count":514,
			"type":"VEC4"
		},
		{
			"bufferView":18,
			"componentType":5121,
			"count":514,
			"type":"VEC4"
		},
		{
			"bufferView":19,
			"componentType":5126,
			"count":514,
			"type":"VEC4"
		},
		{
			"bufferView":20,
			"componentType":5123,
			"count":822,
			"type":"SCALAR"
		},
		{
			"bufferView":21,
			"componentType":5126,
			"count":480,
			"max":[
				0.16564738750457764,
				1.4931234121322632,
				0.16564738750457764
			],
			"min":[
				-0.16564738750457764,
				1.1618287563323975,
				-0.16564737260341644
			],
			"type":"VEC3"
		},
		{
			"bufferView":22,
			"componentType":5126,
			"count":480,
			"type":"VEC3"
		},
		{
			"bufferView":23,
			"componentType":5126,
			"count":480,
			"type":"VEC2"
		},
		{
			"bufferView":24,
			"componentType":5126,
			"count":480,
			"type":"VEC4"
		},
		{
			"bufferView":25,
			"componentType":5121,
			"count":480,
			"type":"VEC4"
		},
		{
			"bufferView":26,
			"componentType":5126,
			"count":480,
			"type":"VEC4"
		},
		{
			"bufferView":27,
			"componentType":5123,
			"count":672,
			"type":"SCALAR"
		},
		{
			"bufferView":28,
			"componentType":5126,
			"count":960,
			"max":[
				0.337637335062027,
				0.8516663908958435,
				0.3498086631298065
			],
			"min":[
				-0.3356088101863861,
				0.6916424036026001,
				0.18978466093540192
			],
			"type":"VEC3"
		},
		{
			"bufferView":29,
			"componentType":5126,
			"count":960,
			"type":"VEC3"
		},
		{
			"bufferView":30,
			"componentType":5126,
			"count":960,
			"type":"VEC2"
		},
		{
			"bufferView":31,
			"componentType":5126,
			"count":960,
			"type":"VEC4"
		},
		{
			"bufferView":32,
			"componentType":5121,
			"count":960,
			"type":"VEC4"
		},
		{
			"bufferView":33,
			"componentType":5126,
			"count":960,
			"type":"VEC4"
		},
		{
			"bufferView":34,
			"componentType":5123,
			"count":1344,
			"type":"SCALAR"
		},
		{
			"bufferView":35,
			"componentType":5126,
			"count":932,
			"max":[
				0.19653718173503876,
				1.532741665840149,
				0.1831846535205841
			],
			"min":[
				-0.19702692329883575,
				1.2405821084976196,
				-0.19967463612556458
			],
			"type":"VEC3"
		},
		{
			"bufferView":36,
			"componentType":5126,
			"count":932,
			"type":"VEC3"
		},
		{
			"bufferView":37,
			"componentType":5126,
			"count":932,
			"type":"VEC2"
		},
		{
			"bufferView":38,
			"componentType":5126,
			"count":932,
			"type":"VEC4"
		},
		{
			"bufferView":39,
			"componentType":5121,
			"count":932,
			"type":"VEC4"
		},
		{
			"bufferView":40,
			"componentType":5126,
			"count":932,
			"type":"VEC4"
		},
		{
			"bufferView":41,
			"componentType":5123,
			"count":1356,
			"type":"SCALAR"
		},
		{
			"bufferView":42,
			"componentType":5126,
			"count":4,
			"type":"MAT4"
		}
	],
	"bufferViews":[
		{
			"buffer":0,
			"byteLength":912,
			"byteOffset":0,
			"target":34962
		},
		{
			"buffer":0,
			"byteLength":912,
			"byteOffset":912,
			"target":34962
		},
		{
			"buffer":0,
			"byteLength":608,
			"byteOffset":1824,
			"target":34962
		},
		{
			"buffer":0,
			"byteLength":1216,
			"byteOffset":2432,
			"target":34962
		},
		{
			"buffer":0,
			"byteLength":304,
			"byteOffset":3648,
			"target":34962
		},
		{
			"buffer":0,
			"byteLength":1216,
			"byteOffset":3952,
			"target":34962
		},
		{
			"buffer":0,
			"byteLength":228,
			"byteOffset":5168,
			"target":34963
		},
		{
			"buffer":0,
			"byteLength":6576,
			"byteOffset":5396,
			"target":34962
		},
		{
			"buffer":0,
			"byteLength":6576,
			"byteOffset":11972,
			"target":34962
		},
		{
			"buffer":0,
			"byteLength":4384,
			"byteOffset":18548,
			"target":34962
		},
		{
			"buffer":0,
			"byteLength":8768,
			"byteOffset":22932,
			"target":34962
		},
		{
			"buffer":0,
			"byteLength":2192,
			"byteOffset":31700,
			"target":34962
		},
		{
			"buffer":0,
			"byteLength":8768,
			"byteOffset":33892,
			"target":34962
		},
		{
			"buffer":0,
			"byteLength":1896,
			"byteOffset":42660,
			"target":34963
		},
		{
			"buffer":0,
			"byteLength":6168,
			"byteOffset":44556,
			"target":34962
		},
		{
			"buffer":0,
			"byteLength":6168,
			"byteOffset":50724,
			"target":34962
		},
		{
			"buffer":0,
			"byteLength":4112,
			"byteOffset":56892,
			"target":34962
		},
		{
			"buffer":0,
			"byteLength":8224,
			"byteOffset":61004,
			"target":34962
		},
		{
			"buffer":0,
			"byteLength":2056,
			"byteOffset":69228,
			"target":34962
		},
		{
			"buffer":0,
			"byteLength":8224,
			"byteOffset":71284,
			"target":34962
		},
		{
			"buffer":0,
			"byteLength":1644,
			"byteOffset":79508,
			"target":34963
		},
		{
			"buffer":0,
			"byteLength":5760,
			"byteOffset":81152,
			"target":34962
		},
		{
			"buffer":0,
			"byteLength":5760,
			"byteOffset":86912,
			"target":34962
		},
		{
			"buffer":0,
			"byteLength":3840,
			"byteOffset":92672,
			"target":34962
		},
		{
			"buffer":0,
			"byteLength":7680,
			"byteOffset":96512,
			"target":34962
		},
		{
			"buffer":0,
			"byteLength":1920,
			"byteOffset":104192,
			"target":34962
		},
		{
			"buffer":0,
			"byteLength":7680,
			"byteOffset":106112,
			"target":34962
		},
		{
			"buffer":0,
			"byteLength":1344,
			"byteOffset":113792,
			"target":34963
		},
		{
			"buffer":0,
			"byteLength":11520,
			"byteOffset":115136,
			"target":34962
		},
		{
			"buffer":0,
			"byteLength":11520,
			"byteOffset":126656,
			"target":34962
		},
		{
			"buffer":0,
			"byteLength":7680,
			"byteOffset":138176,
			"target":34962
		},
		{
			"buffer":0,
			"byteLength":15360,
			"byteOffset":145856,
			"target":34962
		},
		{
			"buffer":0,
			"byteLength":3840,
			"byteOffset":161216,
			"target":34962
		},
		{
			"buffer":0,
			"byteLength":15360,
			"byteOffset":165056,
			"target":34962
		},
		{
			"buffer":0,
			"byteLength":2688,
			"byteOffset":180416,
			"target":34963
		},
		{
			"buffer":0,
			"byteLength":11184,
			"byteOffset":183104,
			"target":34962
		},
		{
			"buffer":0,
			"byteLength":11184,
			"byteOffset":194288,
			"target":34962
		},
		{
			"buffer":0,
			"byteLength":7456,
			"byteOffset":205472,
			"target":34962
		},
		{
			"buffer":0,
			"byteLength":14912,
			"byteOffset":212928,
			"target":34962
		},
		{
			"buffer":0,
			"byteLength":3728,
			"byteOffset":227840,
			"target":34962
		},
		{
			"buffer":0,
			"byteLength":14912,
			"byteOffset":231568,
			"target":34962
		},
		{
			"buffer":0,
			"byteLength":2712,
			"byteOffset":246480,
			"target":34963
		},
		{
			"buffer":0,
			"byteLength":256,
			"byteOffset":249192
		}
	],
	"buffers":[
		{
			"byteLength":249448,
			"uri":"soldier.bin"
		}
	]
}
