{
	"asset":{
		"generator":"Khronos glTF Blender I/O v4.0.44",
		"version":"2.0"
	},
	"scene":0,
	"scenes":[
		{
			"name":"Scene",
			"nodes":[
				0
			]
		}
	],
	"nodes":[
		{
			"mesh":0,
			"name":"Cube"
		}
	],
	"materials":[
		{
			"doubleSided":true,
			"name":"Material.001",
			"pbrMetallicRoughness":{
				"baseColorFactor":[
					0.1307777315378189,
					0.1307777315378189,
					0.1307777315378189,
					1
				],
				"metallicFactor":0,
				"roughnessFactor":0.5
			}
		},
		{
			"doubleSided":true,
			"name":"Material.002",
			"pbrMetallicRoughness":{
				"baseColorFactor":[
					0.800000011920929,
					0.800000011920929,
					0.800000011920929,
					1
				],
				"metallicFactor":0,
				"roughnessFactor":0.5
			}
		}
	],
	"meshes":[
		{
			"name":"Cube.001",
			"primitives":[
				{
					"attributes":{
						"POSITION":0,
						"NORMAL":1,
						"TEXCOORD_0":2,
						"TANGENT":3
					},
					"indices":4,
					"material":0
				},
				{
					"attributes":{
						"POSITION":5,
						"NORMAL":6,
						"TEXCOORD_0":7,
						"TANGENT":8
					},
					"indices":9,
					"material":1
				}
			]
		}
	],
	"accessors":[
		{
			"bufferView":0,
			"componentType":5126,
			"count":102,
			"max":[
				0.05528852343559265,
				0.1467781960964203,
				0.02234068512916565
			],
			"min":[
				-0.05528852343559265,
				-0.000985167920589447,
				-0.02234068512916565
			],
			"type":"VEC3"
		},
		{
			"bufferView":1,
			"componentType":5126,
			"count":102,
			"type":"VEC3"
		},
		{
			"bufferView":2,
			"componentType":5126,
			"count":102,
			"type":"VEC2"
		},
		{
			"bufferView":3,
			"componentType":5126,
			"count":102,
			"type":"VEC4"
		},
		{
			"bufferView":4,
			"componentType":5123,
			"count":222,
			"type":"SCALAR"
		},
		{
			"bufferView":5,
			"componentType":5126,
			"count":44,
			"max":[
				0.01795455813407898,
				0.5006330609321594,
				0.005825018975883722
			],
			"min":[
				-0.01795455813407898,
				0.1467781960964203,
				-0.005825018975883722
			],
			"type":"VEC3"
		},
		{
			"bufferView":6,
			"componentType":5126,
			"count":44,
			"type":"VEC3"
		},
		{
			"bufferView":7,
			"componentType":5126,
			"count":44,
			"type":"VEC2"
		},
		{
			"bufferView":8,
			"componentType":5126,
			"count":44,
			"type":"VEC4"
		},
		{
			"bufferView":9,
			"componentType":5123,
			"count":60,
			"type":"SCALAR"
		}
	],
	"bufferViews":[
		{
			"buffer":0,
			"byteLength":1224,
			"byteOffset":0,
			"target":34962
		},
		{
			"buffer":0,
			"byteLength":1224,
			"byteOffset":1224,
			"target":34962
		},
		{
			"buffer":0,
			"byteLength":816,
			"byteOffset":2448,
			"target":34962
		},
		{
			"buffer":0,
			"byteLength":1632,
			"byteOffset":3264,
			"target":34962
		},
		{
			"buffer":0,
			"byteLength":444,
			"byteOffset":4896,
			"target":34963
		},
		{
			"buffer":0,
			"byteLength":528,
			"byteOffset":5340,
			"target":34962
		},
		{
			"buffer":0,
			"byteLength":528,
			"byteOffset":5868,
			"target":34962
		},
		{
			"buffer":0,
			"byteLength":352,
			"byteOffset":6396,
			"target":34962
		},
		{
			"buffer":0,
			"byteLength":704,
			"byteOffset":6748,
			"target":34962
		},
		{
			"buffer":0,
			"byteLength":120,
			"byteOffset":7452,
			"target":34963
		}
	],
	"buffers":[
		{
			"byteLength":7572,
			"uri":"sword.bin"
		}
	]
}
