{
	"asset":{
		"generator":"Khronos glTF Blender I/O v4.0.44",
		"version":"2.0"
	},
	"scene":0,
	"scenes":[
		{
			"name":"Scene",
			"nodes":[
				6
			]
		}
	],
	"nodes":[
		{
			"name":"Bone.004",
			"rotation":[
				-0.005100307986140251,
				0.002169483806937933,
				0.3914340138435364,
				0.9201894998550415
			],
			"scale":[
				1,
				1,
				0.9999999403953552
			],
			"translation":[
				5.551115123125783e-17,
				0.43519967794418335,
				1.1641530794914701e-10
			]
		},
		{
			"children":[
				0
			],
			"name":"Bone.001",
			"rotation":[
				0.0016666596056893468,
				1.0658156282994553e-14,
				3.973624762565464e-10,
				0.9999986290931702
			],
			"translation":[
				0,
				1.0018060207366943,
				0
			]
		},
		{
			"name":"Bone.002",
			"rotation":[
				-0.8848379254341125,
				-0.2898517847061157,
				-0.11354894936084747,
				0.3466329574584961
			],
			"scale":[
				0.9999998807907104,
				0.9999998211860657,
				0.9999999403953552
			],
			"translation":[
				0,
				1.0018060207366943,
				0
			]
		},
		{
			"name":"Bone.003",
			"rotation":[
				0.8843823671340942,
				0.2810359597206116,
				-0.11286550760269165,
				0.3551732301712036
			],
			"scale":[
				0.9999998807907104,
				1,
				0.9999998807907104
			],
			"translation":[
				0,
				1.0018060207366943,
				0
			]
		},
		{
			"children":[
				1,
				2,
				3
			],
			"name":"Bone",
			"rotation":[
				0,
				-0.7071066498756409,
				0,
				0.70710688829422
			],
			"translation":[
				0,
				0.09431730210781097,
				0
			]
		},
		{
			"mesh":0,
			"name":"Cone",
			"skin":0
		},
		{
			"children":[
				5,
				4
			],
			"name":"Armature.001"
		}
	],
	"materials":[
		{
			"doubleSided":true,
			"name":"Material",
			"pbrMetallicRoughness":{
				"baseColorFactor":[
					0.07312256842851639,
					0.019356664270162582,
					0.12062399089336395,
					1
				],
				"metallicFactor":0,
				"roughnessFactor":0.5
			}
		},
		{
			"doubleSided":true,
			"name":"Material.004",
			"pbrMetallicRoughness":{
				"baseColorFactor":[
					0.8028542995452881,
					0.5488856434822083,
					0.3692421615123749,
					1
				],
				"metallicFactor":0,
				"roughnessFactor":0.5
			}
		},
		{
			"doubleSided":true,
			"name":"Material.005",
			"pbrMetallicRoughness":{
				"baseColorFactor":[
					0.071745365858078,
					0.007706871256232262,
					0.12563645839691162,
					1
				],
				"metallicFactor":0,
				"roughnessFactor":0.5
			}
		},
		{
			"doubleSided":true,
			"name":"Material.006",
			"pbrMetallicRoughness":{
				"baseColorFactor":[
					0.800000011920929,
					0.800000011920929,
					0.800000011920929,
					1
				],
				"metallicFactor":0,
				"roughnessFactor":0.5
			}
		},
		{
			"doubleSided":true,
			"name":"Material.001",
			"pbrMetallicRoughness":{
				"baseColorFactor":[
					0.8003553152084351,
					0.5838589072227478,
					0.38648465275764465,
					1
				],
				"metallicFactor":0,
				"roughnessFactor":0.5
			}
		},
		{
			"doubleSided":true,
			"name":"Material.002",
			"pbrMetallicRoughness":{
				"baseColorFactor":[
					0.8005127906799316,
					0.49469614028930664,
					0.2957307696342468,
					1
				],
				"metallicFactor":0,
				"roughnessFactor":0.5
			}
		}
	],
	"meshes":[
		{
			"name":"Cone",
			"primitives":[
				{
					"attributes":{
						"POSITION":0,
						"NORMAL":1,
						"TEXCOORD_0":2,
						"TANGENT":3,
						"JOINTS_0":4,
						"WEIGHTS_0":5
					},
					"indices":6,
					"material":0
				},
				{
					"attributes":{
						"POSITION":7,
						"NORMAL":8,
						"TEXCOORD_0":9,
						"TANGENT":10,
						"JOINTS_0":11,
						"WEIGHTS_0":12
					},
					"indices":13,
					"material":1
				},
				{
					"attributes":{
						"POSITION":14,
						"NORMAL":15,
						"TEXCOORD_0":16,
						"TANGENT":17,
						"JOINTS_0":18,
						"WEIGHTS_0":19
					},
					"indices":20,
					"material":2
				},
				{
					"attributes":{
						"POSITION":21,
						"NORMAL":22,
						"TEXCOORD_0":23,
						"TANGENT":24,
						"JOINTS_0":25,
						"WEIGHTS_0":26
					},
					"indices":27,
					"material":3
				},
				{
					"attributes":{
						"POSITION":28,
						"NORMAL":29,
						"TEXCOORD_0":30,
						"TANGENT":31,
						"JOINTS_0":32,
						"WEIGHTS_0":33
					},
					"indices":34,
					"material":4
				},
				{
					"attributes":{
						"POSITION":35,
						"NORMAL":36,
						"TEXCOORD_0":37,
						"TANGENT":38,
						"JOINTS_0":39,
						"WEIGHTS_0":40
					},
					"indices":41,
					"material":5
				}
			]
		}
	],
	"skins":[
		{
			"inverseBindMatrices":42,
			"joints":[
				4,
				1,
				0,
				2,
				3
			],
			"name":"Armature.001"
		}
	],
	"accessors":[
		{
			"bufferView":0,
			"componentType":5126,
			"count":368,
			"max":[
				0.4039342999458313,
				1.7434654235839844,
				0.38217735290527344
			],
			"min":[
				-0.4039342999458313,
				1.2733346223831177,
				-0.38945797085762024
			],
			"type":"VEC3"
		},
		{
			"bufferView":1,
			"componentType":5126,
			"count":368,
			"type":"VEC3"
		},
		{
			"bufferView":2,
			"componentType":5126,
			"count":368,
			"type":"VEC2"
		},
		{
			"bufferView":3,
			"componentType":5126,
			"count":368,
			"type":"VEC4"
		},
		{
			"bufferView":4,
			"componentType":5121,
			"count":368,
			"type":"VEC4"
		},
		{
			"bufferView":5,
			"componentType":5126,
			"count":368,
			"type":"VEC4"
		},
		{
			"bufferView":6,
			"componentType":5123,
			"count":528,
			"type":"SCALAR"
		},
		{
			"bufferView":7,
			"componentType":5126,
			"count":262,
			"max":[
				0.14201988279819489,
				1.1267316341400146,
				0.1763339638710022
			],
			"min":[
				-0.1420680284500122,
				0.6972545981407166,
				-0.14443384110927582
			],
			"type":"VEC3"
		},
		{
			"bufferView":8,
			"componentType":5126,
			"count":262,
			"type":"VEC3"
		},
		{
			"bufferView":9,
			"componentType":5126,
			"count":262,
			"type":"VEC2"
		},
		{
			"bufferView":10,
			"componentType":5126,
			"count":262,
			"type":"VEC4"
		},
		{
			"bufferView":11,
			"componentType":5121,
			"count":262,
			"type":"VEC4"
		},
		{
			"bufferView":12,
			"componentType":5126,
			"count":262,
			"type":"VEC4"
		},
		{
			"bufferView":13,
			"componentType":5123,
			"count":390,
			"type":"SCALAR"
		},
		{
			"bufferView":14,
			"componentType":5126,
			"count":586,
			"max":[
				0.17608456313610077,
				1.0679266452789307,
				0.17202550172805786
			],
			"min":[
				-0.17608459293842316,
				0.002192565007135272,
				-0.1759791225194931
			],
			"type":"VEC3"
		},
		{
			"bufferView":15,
			"componentType":5126,
			"count":586,
			"type":"VEC3"
		},
		{
			"bufferView":16,
			"componentType":5126,
			"count":586,
			"type":"VEC2"
		},
		{
			"bufferView":17,
			"componentType":5126,
			"count":586,
			"type":"VEC4"
		},
		{
			"bufferView":18,
			"componentType":5121,
			"count":586,
			"type":"VEC4"
		},
		{
			"bufferView":19,
			"componentType":5126,
			"count":586,
			"type":"VEC4"
		},
		{
			"bufferView":20,
			"componentType":5123,
			"count":1230,
			"type":"SCALAR"
		},
		{
			"bufferView":21,
			"componentType":5126,
			"count":314,
			"max":[
				0.14201988279819489,
				1.0901613235473633,
				0.17671535909175873
			],
			"min":[
				-0.1420680284500122,
				0.698296308517456,
				-0.14443384110927582
			],
			"type":"VEC3"
		},
		{
			"bufferView":22,
			"componentType":5126,
			"count":314,
			"type":"VEC3"
		},
		{
			"bufferView":23,
			"componentType":5126,
			"count":314,
			"type":"VEC2"
		},
		{
			"bufferView":24,
			"componentType":5126,
			"count":314,
			"type":"VEC4"
		},
		{
			"bufferView":25,
			"componentType":5121,
			"count":314,
			"type":"VEC4"
		},
		{
			"bufferView":26,
			"componentType":5126,
			"count":314,
			"type":"VEC4"
		},
		{
			"bufferView":27,
			"componentType":5123,
			"count":504,
			"type":"SCALAR"
		},
		{
			"bufferView":28,
			"componentType":5126,
			"count":480,
			"max":[
				0.17057953774929047,
				1.5651298761367798,
				0.17057952284812927
			],
			"min":[
				-0.17057953774929047,
				1.223970890045166,
				-0.17057953774929047
			],
			"type":"VEC3"
		},
		{
			"bufferView":29,
			"componentType":5126,
			"count":480,
			"type":"VEC3"
		},
		{
			"bufferView":30,
			"componentType":5126,
			"count":480,
			"type":"VEC2"
		},
		{
			"bufferView":31,
			"componentType":5126,
			"count":480,
			"type":"VEC4"
		},
		{
			"bufferView":32,
			"componentType":5121,
			"count":480,
			"type":"VEC4"
		},
		{
			"bufferView":33,
			"componentType":5126,
			"count":480,
			"type":"VEC4"
		},
		{
			"bufferView":34,
			"componentType":5123,
			"count":672,
			"type":"SCALAR"
		},
		{
			"bufferView":35,
			"componentType":5126,
			"count":960,
			"max":[
				0.34769052267074585,
				0.9045734405517578,
				0.3602242171764374
			],
			"min":[
				-0.34560149908065796,
				0.739784836769104,
				0.1954355090856552
			],
			"type":"VEC3"
		},
		{
			"bufferView":36,
			"componentType":5126,
			"count":960,
			"type":"VEC3"
		},
		{
			"bufferView":37,
			"componentType":5126,
			"count":960,
			"type":"VEC2"
		},
		{
			"bufferView":38,
			"componentType":5126,
			"count":960,
			"type":"VEC4"
		},
		{
			"bufferView":39,
			"componentType":5121,
			"count":960,
			"type":"VEC4"
		},
		{
			"bufferView":40,
			"componentType":5126,
			"count":960,
			"type":"VEC4"
		},
		{
			"bufferView":41,
			"componentType":5123,
			"count":1344,
			"type":"SCALAR"
		},
		{
			"bufferView":42,
			"componentType":5126,
			"count":5,
			"type":"MAT4"
		}
	],
	"bufferViews":[
		{
			"buffer":0,
			"byteLength":4416,
			"byteOffset":0,
			"target":34962
		},
		{
			"buffer":0,
			"byteLength":4416,
			"byteOffset":4416,
			"target":34962
		},
		{
			"buffer":0,
			"byteLength":2944,
			"byteOffset":8832,
			"target":34962
		},
		{
			"buffer":0,
			"byteLength":5888,
			"byteOffset":11776,
			"target":34962
		},
		{
			"buffer":0,
			"byteLength":1472,
			"byteOffset":17664,
			"target":34962
		},
		{
			"buffer":0,
			"byteLength":5888,
			"byteOffset":19136,
			"target":34962
		},
		{
			"buffer":0,
			"byteLength":1056,
			"byteOffset":25024,
			"target":34963
		},
		{
			"buffer":0,
			"byteLength":3144,
			"byteOffset":26080,
			"target":34962
		},
		{
			"buffer":0,
			"byteLength":3144,
			"byteOffset":29224,
			"target":34962
		},
		{
			"buffer":0,
			"byteLength":2096,
			"byteOffset":32368,
			"target":34962
		},
		{
			"buffer":0,
			"byteLength":4192,
			"byteOffset":34464,
			"target":34962
		},
		{
			"buffer":0,
			"byteLength":1048,
			"byteOffset":38656,
			"target":34962
		},
		{
			"buffer":0,
			"byteLength":4192,
			"byteOffset":39704,
			"target":34962
		},
		{
			"buffer":0,
			"byteLength":780,
			"byteOffset":43896,
			"target":34963
		},
		{
			"buffer":0,
			"byteLength":7032,
			"byteOffset":44676,
			"target":34962
		},
		{
			"buffer":0,
			"byteLength":7032,
			"byteOffset":51708,
			"target":34962
		},
		{
			"buffer":0,
			"byteLength":4688,
			"byteOffset":58740,
			"target":34962
		},
		{
			"buffer":0,
			"byteLength":9376,
			"byteOffset":63428,
			"target":34962
		},
		{
			"buffer":0,
			"byteLength":2344,
			"byteOffset":72804,
			"target":34962
		},
		{
			"buffer":0,
			"byteLength":9376,
			"byteOffset":75148,
			"target":34962
		},
		{
			"buffer":0,
			"byteLength":2460,
			"byteOffset":84524,
			"target":34963
		},
		{
			"buffer":0,
			"byteLength":3768,
			"byteOffset":86984,
			"target":34962
		},
		{
			"buffer":0,
			"byteLength":3768,
			"byteOffset":90752,
			"target":34962
		},
		{
			"buffer":0,
			"byteLength":2512,
			"byteOffset":94520,
			"target":34962
		},
		{
			"buffer":0,
			"byteLength":5024,
			"byteOffset":97032,
			"target":34962
		},
		{
			"buffer":0,
			"byteLength":1256,
			"byteOffset":102056,
			"target":34962
		},
		{
			"buffer":0,
			"byteLength":5024,
			"byteOffset":103312,
			"target":34962
		},
		{
			"buffer":0,
			"byteLength":1008,
			"byteOffset":108336,
			"target":34963
		},
		{
			"buffer":0,
			"byteLength":5760,
			"byteOffset":109344,
			"target":34962
		},
		{
			"buffer":0,
			"byteLength":5760,
			"byteOffset":115104,
			"target":34962
		},
		{
			"buffer":0,
			"byteLength":3840,
			"byteOffset":120864,
			"target":34962
		},
		{
			"buffer":0,
			"byteLength":7680,
			"byteOffset":124704,
			"target":34962
		},
		{
			"buffer":0,
			"byteLength":1920,
			"byteOffset":132384,
			"target":34962
		},
		{
			"buffer":0,
			"byteLength":7680,
			"byteOffset":134304,
			"target":34962
		},
		{
			"buffer":0,
			"byteLength":1344,
			"byteOffset":141984,
			"target":34963
		},
		{
			"buffer":0,
			"byteLength":11520,
			"byteOffset":143328,
			"target":34962
		},
		{
			"buffer":0,
			"byteLength":11520,
			"byteOffset":154848,
			"target":34962
		},
		{
			"buffer":0,
			"byteLength":7680,
			"byteOffset":166368,
			"target":34962
		},
		{
			"buffer":0,
			"byteLength":15360,
			"byteOffset":174048,
			"target":34962
		},
		{
			"buffer":0,
			"byteLength":3840,
			"byteOffset":189408,
			"target":34962
		},
		{
			"buffer":0,
			"byteLength":15360,
			"byteOffset":193248,
			"target":34962
		},
		{
			"buffer":0,
			"byteLength":2688,
			"byteOffset":208608,
			"target":34963
		},
		{
			"buffer":0,
			"byteLength":320,
			"byteOffset":211296
		}
	],
	"buffers":[
		{
			"byteLength":211616,
			"uri":"wizard.bin"
		}
	]
}
